<?xml version="1.0" standalone="no"?>
<!DOCTYPE svg PUBLIC "-//W3C//DTD SVG 20010904//EN"
 "http://www.w3.org/TR/2001/REC-SVG-20010904/DTD/svg10.dtd">
<svg version="1.0" xmlns="http://www.w3.org/2000/svg"
 width="700.000000pt" height="700.000000pt" viewBox="0 0 700.000000 700.000000"
 preserveAspectRatio="xMidYMid meet">
<metadata>
Created by potrace 1.11, written by Peter Selinger 2001-2013
</metadata>
<g transform="translate(0.000000,700.000000) scale(0.100000,-0.100000)"
fill="#000000" stroke="none">
<path d="M2870 6991 c-75 -23 -151 -77 -186 -133 -60 -95 -57 -15 -58 -1303
l-1 -1180 -630 0 -630 0 -57 -28 c-61 -30 -96 -65 -130 -131 -31 -58 -31 -174
0 -232 24 -47 2166 -2194 2189 -2194 7 0 13 -4 13 -9 0 -14 116 -34 157 -26
21 3 56 15 79 24 59 27 2175 2146 2205 2210 30 63 30 159 1 224 -26 59 -80
113 -141 140 -45 20 -60 21 -668 22 -342 0 -625 4 -630 8 -4 5 -8 536 -9 1180
l-1 1172 -21 56 c-30 76 -92 141 -171 178 l-65 30 -610 0 c-336 -1 -622 -4
-636 -8z"/>
<path d="M243 2174 c-96 -25 -170 -88 -215 -182 l-23 -47 0 -850 0 -850 26
-55 c32 -69 87 -124 159 -158 l55 -27 3255 0 3255 0 56 28 c66 32 132 99 162
165 l22 47 0 850 0 850 -30 59 c-34 68 -101 130 -172 160 -47 21 -62 21 -1087
23 l-1039 2 -346 -345 c-190 -191 -363 -361 -386 -379 -152 -124 -379 -179
-575 -138 -96 19 -220 77 -290 135 -30 24 -208 198 -396 386 l-340 341 -1020
-1 c-835 0 -1028 -2 -1071 -14z m4917 -1280 c68 -37 127 -111 136 -173 2 -14
5 -37 7 -51 14 -95 -63 -219 -162 -263 -43 -19 -131 -27 -176 -16 -70 17 -142
75 -178 143 -31 58 -31 184 0 242 75 141 237 192 373 118z m842 16 c176 -66
232 -291 108 -433 -55 -62 -117 -90 -204 -90 -109 0 -195 53 -243 151 -108
221 108 459 339 372z"/>
</g>
</svg>
